#Unknown ASF file
:ROOT_YZX
:FOOT_3DOF
:FULLY-SPECIFIED
:DEGREES
303
root -3.92767 17.0935 44.1355 -5.06378 7.33394 5.16464
lfemur 0.598568 -1.35508 -30.1368
ltibia 36.7803
lfoot -21.3836 0 -6.54986
ltoes -24.0102
rfemur -17.7224 -9.06663 15.652
rtibia 17.7921
rfoot -15.0742 0 -10.4192
rtoes -54.5473
lowerback 9.76053 -0.122629 -7.26358
upperback 3.5867 -0.762481 2.68499
thorax -1.57847 -0.433648 7.01331
lowerneck -19.4772 5.03851 -10.4781
upperneck 21.4395 8.58024 6.70973
head 9.1768 3.94857 5.15814
lclavicle -6.16232e-015 1.27222e-014
lhumerus -28.7179 -5.91679 87.5308
lradius 50.0642
lwrist 8.91453
lhand -12.1012 31.4441
lfingers 7.12502
lthumb 13.9595 60.9554
rclavicle -6.16232e-015 1.27222e-014
rhumerus -35.2425 -13.1725 -75.4343
rradius 24.3293
rwrist 6.27302
rhand -21.4387 13.3756
rfingers 7.12502
rthumb 4.95075 -16.5466
304
root -3.96654 17.0617 44.5425 -4.92341 7.9136 5.02396
lfemur 1.73374 -2.35127 -29.9014
ltibia 36.9185
lfoot -21.6464 0 -6.34799
ltoes -24.8812
rfemur -18.5013 -5.22907 15.4358
rtibia 21.8681
rfoot -15.6929 0 -6.96158
rtoes -53.9427
lowerback 10.3071 -0.0157053 -7.47691
upperback 3.39299 -0.672027 3.03201
thorax -2.08892 -0.36108 7.51452
lowerneck -19.5942 5.06835 -10.5775
upperneck 21.7419 8.64324 6.82309
head 9.2858 3.9729 5.24186
lclavicle 7.7526e-015 1.74931e-014
lhumerus -28.6867 -6.46638 87.5826
lradius 51.6219
lwrist 8.36577
lhand -12.3028 30.7784
lfingers 7.12502
lthumb 13.7652 60.303
rclavicle 7.7526e-015 1.74931e-014
rhumerus -36.1609 -13.0708 -74.9639
rradius 24.0092
rwrist 7.13637
rhand -21.4654 13.9562
rfingers 7.12502
rthumb 4.92495 -15.9666
305
root -3.95054 17.0579 44.9561 -5.10756 9.27736 5.94676
lfemur 3.46065 -3.25422 -31.1433
ltibia 36.7732
lfoot -20.6681 0 -5.73702
ltoes -26.3552
rfemur -19.7472 -4.8083 14.0057
rtibia 26.7926
rfoot -17.412 0 -2.49154
rtoes -60.9564
lowerback 10.5492 -0.176575 -8.04493
upperback 3.778 -0.950499 3.0243
thorax -1.74984 -0.531865 7.8682
lowerneck -20.3586 5.06361 -10.8878
upperneck 21.7718 8.86749 6.63092
head 9.41178 4.02739 5.28695
lclavicle 2.5842e-014 -7.95139e-015
lhumerus -28.3715 -5.34844 87.7427
lradius 52.9509
lwrist 7.52305
lhand -12.0115 31.5913
lfingers 7.12502
lthumb 14.0459 61.0967
rclavicle 2.5842e-014 -7.95139e-015
rhumerus -35.793 -13.4582 -74.4163
rradius 23.2143
rwrist 8.02181
rhand -21.4755 13.2907
rfingers 7.12502
rthumb 4.91525 -16.6323
306
root -3.932 17.0784 45.3943 -5.11055 10.5928 5.63791
lfemur 4.03374 -3.674 -30.6707
ltibia 38.3735
lfoot -19.2621 0 -6.60762
ltoes -27.0138
rfemur -19.3941 -5.08476 14.3163
rtibia 29.2172
rfoot -14.9723 0 -2.98572
rtoes -61.0604
lowerback 10.7579 -0.405119 -7.36678
upperback 3.77501 -1.18891 3.32551
thorax -1.83309 -0.644412 7.83315
lowerneck -20.7524 5.04537 -11.4756
upperneck 22.1281 8.99396 6.99662
head 9.54587 4.06994 5.55945
lclavicle 1.61016e-014 -1.74931e-014
lhumerus -29.4218 -3.98076 88.3156
lradius 53.3751
lwrist 8.02102
lhand -13.8143 31.2702
lfingers 7.12502
lthumb 12.3082 60.888
rclavicle 1.61016e-014 -1.74931e-014
rhumerus -35.9619 -15.344 -72.8204
rradius 21.9894
rwrist 9.81456
rhand -21.4333 13.5551
rfingers 7.12502
rthumb 4.95601 -16.3669
307
root -3.96836 17.1276 45.8246 -4.4199 11.543 4.55831
lfemur 3.38957 -3.50123 -28.3857
ltibia 40.4855
lfoot -16.6233 0 -9.4789
ltoes -26.269
rfemur -18.8241 -3.57857 15.8312
rtibia 29.8952
rfoot -13.2452 0 -2.70799
rtoes -62.3846
lowerback 9.51407 -0.443517 -6.76894
upperback 4.15155 -1.08452 4.07704
thorax -0.769756 -0.653849 8.24653
lowerneck -19.9077 5.30125 -9.95021
upperneck 20.6559 9.2206 5.00646
head 9.05456 4.11577 4.5409
lclavicle 2.10712e-014 -3.18055e-015
lhumerus -29.1694 -3.11594 89.3013
lradius 51.774
lwrist 9.71508
lhand -15.5718 30.8861
lfingers 7.12502
lthumb 10.6132 60.5981
rclavicle 2.10712e-014 -3.18055e-015
rhumerus -35.0483 -15.4936 -72.3482
rradius 21.0777
rwrist 8.38068
rhand -21.2662 12.3728
rfingers 7.12502
rthumb 5.11732 -17.5454
308
root -3.97611 17.2141 46.2595 -4.16183 13.5618 4.0658
lfemur 2.70263 -3.41971 -26.6528
ltibia 42.6963
lfoot -13.0694 0 -12.7566
ltoes -26.4467
rfemur -17.1627 -3.51855 16.5163
rtibia 29.5805
rfoot -10.9799 0 -3.36729
rtoes -62.3733
lowerback 10.8087 -0.628388 -5.94655
upperback 2.69773 -1.31383 4.19545
thorax -2.99052 -0.619482 7.98836
lowerneck -17.7192 6.24359 -7.43969
upperneck 21.2072 10.2188 2.46926
head 9.06945 4.46977 3.33323
lclavicle 3.97569e-016 -2.06736e-014
lhumerus -32.1861 -3.2945 90.0452
lradius 50.025
lwrist 10.1757
lhand -15.3539 30.7594
lfingers 7.12502
lthumb 10.8234 60.4605
rclavicle 3.97569e-016 -2.06736e-014
rhumerus -37.6286 -15.881 -71.1108
rradius 21.1497
rwrist 7.96084
rhand -21.4142 11.3415
rfingers 7.12502
rthumb 4.97444 -18.5801
309
root -4.01162 17.2629 46.654 -3.58071 15.4136 2.70233
lfemur 0.818647 -2.77486 -23.5675
ltibia 45.7767
lfoot -8.63751 0 -15.9679
ltoes -25.8032
rfemur -16.0819 -3.2981 18.3296
rtibia 29.2661
rfoot -8.8264 0 -4.79704
rtoes -62.5422
lowerback 10.833 -0.602088 -4.52056
upperback 2.3164 -1.09682 4.63737
thorax -3.46761 -0.487595 7.61769
lowerneck -19.6043 5.76231 -9.16512
upperneck 23.057 9.91782 4.10324
head 9.88796 4.29299 4.29762
lclavicle -6.0033e-014 -3.18055e-015
lhumerus -32.9964 -4.34838 90.9948
lradius 47.8596
lwrist 9.74416
lhand -15.0449 29.5529
lfingers 7.12502
lthumb 11.1215 59.2382
rclavicle -6.0033e-014 -3.18055e-015
rhumerus -37.9734 -16.0541 -70.8268
rradius 21.32
rwrist 7.06945
rhand -22.1461 11.8341
rfingers 7.12502
rthumb 4.26765 -18.1029
